<svg height="512pt" viewBox="-122 0 512 512" width="512pt" xmlns="http://www.w3.org/2000/svg"><path d="m267.917969 443.519531v60.617188c0 4.335937-3.503907 7.863281-7.8125 7.863281h-241.089844c-4.316406 0-7.820313-3.527344-7.820313-7.863281v-60.617188c0-30.726562 20.050782-57.792969 49.304688-66.570312l13.859375-4.148438c7.035156-2.105469 12.835937-6.703125 16.578125-12.65625 2.316406-3.695312 3.832031-7.894531 4.347656-12.367187.144532-1.160156.214844-2.332032.214844-3.527344v-23.847656l81.257812-18.175782v39.960938c0 7.605469 2.867188 14.691406 7.699219 20.03125 3.542969 3.921875 8.148438 6.921875 13.445313 8.519531l20.722656 6.214844c29.25 8.773437 49.292969 35.839844 49.292969 66.566406zm0 0" fill="#ffdba9"/><path d="m176.757812 302.222656v33.726563c-13.703124 9.234375-30.179687 14.609375-47.890624 14.609375h-11.851563c-7.5 0-14.785156-.964844-21.730469-2.78125.144532-1.164063.214844-2.335938.214844-3.527344v-23.851562zm0 0" fill="#ffc473"/><path d="m128.574219 327.734375h-11.265625c-47.8125 0-86.570313-38.757813-86.570313-86.574219v-196.109375h184.410157v196.109375c0 47.816406-38.761719 86.574219-86.574219 86.574219zm0 0" fill="#ffdba9"/><path d="m224.753906 222.945312h-9.605468v-63.296874h9.605468c16.296875 0 29.511719 13.210937 29.511719 29.511718v4.269532c0 16.300781-13.214844 29.515624-29.511719 29.515624zm0 0" fill="#ffc473"/><path d="m152.28125 0v75.503906c0 9.296875 3.667969 18.210938 10.195312 24.78125l11.515626 11.597656c7.566406 7.617188 11.820312 17.949219 11.820312 28.722657v6.113281c0 7.140625 5.746094 12.929688 12.839844 12.929688h16.496094v-116.046876c0-24.078124-19.390626-43.601562-43.308594-43.601562zm0 0" fill="#715539"/><path d="m38.441406 79.824219h78.207032c19.679687 0 35.632812-16.0625 35.632812-35.875v-43.949219l-150.113281 33.507812c-1.265625.28125-2.167969 1.414063-2.167969 2.71875v4.894532c0 21.375 17.210938 38.703125 38.441406 38.703125zm0 0" fill="#8a6745"/><path d="m77.714844 179.296875c0-5.097656-4.101563-9.226563-9.164063-9.226563s-9.164062 4.128907-9.164062 9.226563c0 5.09375 4.101562 9.226563 9.164062 9.226563s9.164063-4.132813 9.164063-9.226563zm0 0" fill="#57555c"/><path d="m151.035156 179.296875c0-5.097656-4.101562-9.226563-9.164062-9.226563s-9.164063 4.128907-9.164063 9.226563c0 5.09375 4.101563 9.226563 9.164063 9.226563s9.164062-4.132813 9.164062-9.226563zm0 0" fill="#57555c"/><path d="m103.023438 278.285156c-8.277344 0-14.871094-2.324218-18.066407-3.707031-3.917969-1.699219-5.726562-6.277344-4.039062-10.222656 1.6875-3.949219 6.234375-5.765625 10.15625-4.070313 3.25 1.410156 11.859375 4.304688 21.53125.738282 7.398437-2.730469 11.804687-7.960938 13.773437-10.835938 2.425782-3.535156 7.238282-4.425781 10.75-1.984375 3.515625 2.4375 4.398438 7.285156 1.976563 10.820313-3.011719 4.394531-9.769531 12.398437-21.179688 16.609374-5.285156 1.949219-10.347656 2.652344-14.902343 2.652344zm0 0" fill="#c06100"/><path d="m267.914062 443.515625v29.570313h-48.585937v38.914062h-158.027344v-38.914062h-50.101562v-29.570313c0-30.71875 20.050781-57.792969 49.300781-66.5625l13.863281-4.15625c7.035157-2.109375 12.839844-6.699219 16.570313-12.652344 12.191406 4.96875 28.839844 9.667969 48.773437 9.789063 17.121094.101562 32.1875-3.203125 44.75-7.714844 3.546875 3.925781 8.148438 6.917969 13.445313 8.511719l20.722656 6.222656c29.246094 8.769531 49.289062 35.84375 49.289062 66.5625zm0 0" fill="#4c95f9"/><path d="m197.902344 370.734375 8.398437 2.519531c-19 6.339844-41.359375 10.820313-66.511719 10.675782-25.574218-.15625-47.75-5.0625-65.535156-11.101563l.105469-.027344c7.035156-2.109375 12.835937-6.703125 16.578125-12.65625 12.1875 4.96875 28.839844 9.667969 48.769531 9.792969 17.125.101562 32.1875-3.207031 44.75-7.71875 3.542969 3.917969 8.148438 6.917969 13.445313 8.515625zm0 0" fill="#004eb2"/></svg>