<svg height="511pt" viewBox="-129 1 511 511.99985" width="511pt" xmlns="http://www.w3.org/2000/svg"><path d="m253.597656 447.742188v56.882812c0 4.066406-3.304687 7.375-7.375 7.375h-227.757812c-4.078125 0-7.386719-3.308594-7.386719-7.375v-56.882812c0-28.828126 18.945313-54.230469 46.574219-62.457032l13.097656-3.902344c6.648438-1.976562 12.128906-6.285156 15.65625-11.871093 2.757812-4.359375 4.316406-9.496094 4.316406-14.917969v-17.289062l76.761719-22.136719v37.492187c0 7.136719 2.703125 13.785156 7.273437 18.796875 3.347657 3.683594 7.695313 6.492188 12.699219 7.992188l19.578125 5.835937c27.632813 8.226563 46.5625 33.628906 46.5625 62.457032zm0 0" fill="#ffdba9"/><path d="m207.035156 385.28125-19.574218-5.835938c-5.003907-1.496093-9.351563-4.304687-12.703126-7.988281-4.566406-5.015625-7.273437-11.660156-7.273437-18.796875v-37.492187l-76.761719 22.136719v11.753906l49.9375-14.402344v37.492188c0 7.136718 2.703125 13.785156 7.269532 18.796874 3.351562 3.683594 7.699218 6.492188 12.703124 7.992188l19.578126 5.835938c27.628906 8.226562 46.5625 33.632812 46.5625 62.457031v44.769531h19.449218c4.070313 0 7.375-3.308594 7.375-7.375v-56.882812c0-28.828126-18.929687-54.230469-46.5625-62.460938zm0 0" fill="#ffc473"/><path d="m117.355469 339.101562h-1.421875c-47.714844 0-86.398438-38.679687-86.398438-86.398437v-181.726563h174.21875v181.730469c0 47.714844-38.683594 86.394531-86.398437 86.394531zm0 0" fill="#ffdba9"/><path d="m211.253906 240.773438h-7.5v-59.390626h7.5c16.265625 0 29.453125 13.1875 29.453125 29.453126v.484374c0 16.269532-13.1875 29.453126-29.453125 29.453126zm0 0" fill="#ffc473"/><path d="m144.359375 31.582031v70.847657c0 8.722656 3.464844 17.085937 9.632813 23.253906l10.878906 10.878906c7.148437 7.148438 11.164062 16.84375 11.164062 26.953125v5.734375c0 6.699219 5.433594 12.132812 12.132813 12.132812h15.585937v-108.886718c0-22.59375-18.320312-40.914063-40.914062-40.914063zm0 0" fill="#715539"/><path d="m36.8125 106.484375h73.882812c18.59375 0 33.664063-15.074219 33.664063-33.664063v-41.238281c-10.964844-20.859375-24.46875-27.691406-30.566406-30.105469-32.320313-12.792968-112.167969 61.78125-112.71875 62.464844-.363281.449219-.574219 1.023438-.574219 1.632813v4.59375c0 20.054687 16.257812 36.316406 36.3125 36.316406zm0 0" fill="#a17852"/><path d="m73.917969 199.820312c0 4.78125-3.878907 8.65625-8.660157 8.65625s-8.65625-3.875-8.65625-8.65625 3.875-8.660156 8.65625-8.660156 8.660157 3.878906 8.660157 8.660156zm0 0" fill="#57555c"/><path d="m143.183594 199.820312c0 4.78125-3.875 8.65625-8.65625 8.65625s-8.65625-3.875-8.65625-8.65625 3.875-8.660156 8.65625-8.660156 8.65625 3.878906 8.65625 8.660156zm0 0" fill="#57555c"/><path d="m253.597656 447.742188v27.742187h-45.894531v36.515625h-149.292969v-36.515625h-47.332031v-27.742187c0-28.828126 18.945313-54.230469 46.574219-62.457032l13.097656-3.902344c6.648438-1.976562 12.128906-6.285156 15.65625-11.871093 11.515625 4.660156 27.246094 9.074219 46.074219 9.1875 16.175781.09375 30.40625-3.007813 42.277343-7.242188 3.347657 3.683594 7.699219 6.492188 12.703126 7.992188l19.574218 5.835937c27.632813 8.226563 46.5625 33.628906 46.5625 62.457032zm0 0" fill="#00b7be"/><path d="m207.035156 385.28125-19.574218-5.835938c-5.003907-1.496093-9.351563-4.304687-12.703126-7.988281-9.640624 3.441407-20.84375 6.132813-33.378906 6.96875 1.082032 4.710938 3.363282 9.015625 6.554688 12.519531 3.347656 3.683594 7.699218 6.492188 12.703125 7.992188l19.574219 5.835938c27.632812 8.226562 46.5625 33.632812 46.5625 62.457031v8.253906h26.828124v-27.742187c-.003906-28.828126-18.933593-54.230469-46.566406-62.460938zm0 0" fill="#01989e"/><path d="m183.832031 345.75c-.25.382812-.507812.761719-.773437 1.175781-3.335938 5.085938-8.285156 12.238281-15.476563 19.121094-3.675781 3.527344-7.945312 6.984375-12.886719 10.046875-3.828124 2.394531-8.070312 4.542969-12.753906 6.316406-.898437.339844-1.804687.660156-2.722656.957032-4.851562 1.640624-9.824219 2.746093-14.839844 3.363281-5.148437.652343-10.335937.777343-15.472656.4375-5.230469-.34375-10.433594-1.167969-15.488281-2.4375-5.335938-1.339844-10.523438-3.179688-15.476563-5.449219-5.304687-2.445312-10.328125-5.394531-14.941406-8.789062-.535156-.382813-1.050781-.773438-1.566406-1.175782-5.199219-4.027344-9.855469-8.617187-13.910156-13.683594-17.582032-21.914062-24.070313-52.496093-16.445313-82.222656 5.789063-1.804687 15.960937-3.25 26.246094-8.613281 5.386719-2.816406 9.019531-5.707031 11.703125-8.574219 4.035156-4.34375 9.789062-6.667968 15.714844-6.667968h29.722656c3.839844 0 7.617187 1 10.917968 2.953124 4.910157 2.898438 11.203126 5.984376 18.796876 8.375 6.140624 1.921876 11.824218 2.984376 16.765624 3.550782 5.035157.566406 9.78125-2.351563 11.535157-7.097656 2.871093-7.71875 5.601562-16.21875 7.976562-25.476563 4.871094-18.953125 6.964844-36.132813 7.707031-50.472656h15.589844c-.058594 9.679687-.246094 35.367187 0 59.390625.535156 52.910156-3.074218 79.085937-19.921875 104.972656zm0 0" fill="#a17852"/><path d="m203.753906 181.265625c-.019531-2.683594-.011718-3.859375.019532-3.859375.011718 0 0 1.382812-.019532 3.859375zm0 0" fill="#57555c"/><path d="m100.945312 297.855469c-10.082031 0-17.847656-3.539063-22.632812-6.546875-3.617188-2.277344-4.703125-7.054688-2.429688-10.671875 2.277344-3.617188 7.054688-4.703125 10.667969-2.429688 2.558594 1.609375 7.863281 4.300781 14.886719 4.164063 6.21875-.109375 11.003906-2.324219 13.921875-4.160156 3.613281-2.277344 8.394531-1.195313 10.671875 2.421874 2.277344 3.617188 1.191406 8.394532-2.425781 10.671876-4.585938 2.886718-12.109375 6.367187-21.894531 6.539062-.257813.007812-.511719.011719-.765626.011719zm0 0" fill="#644b32"/><g fill="#715539"><path d="m63 293.6875v76.804688c-.539062-.382813-1.054688-.773438-1.570312-1.175782-5.199219-4.027344-9.855469-8.617187-13.910157-13.683594v-61.949218c0-4.28125 3.46875-7.734375 7.738281-7.734375 4.273438 0 7.742188 3.457031 7.742188 7.738281zm0 0"/><path d="m93.414062 319.234375v65.496094c-5.332031-1.339844-10.523437-3.179688-15.472656-5.449219v-60.046875c0-4.28125 3.464844-7.738281 7.738282-7.738281 4.269531 0 7.734374 3.457031 7.734374 7.738281zm0 0"/><path d="m124.378906 319.234375v67.496094c-5.148437.652343-10.339844.777343-15.476562.4375v-67.933594c0-4.28125 3.46875-7.738281 7.738281-7.738281 4.28125 0 7.738281 3.457031 7.738281 7.738281zm0 0"/><path d="m154.691406 293.6875v82.40625c-3.828125 2.394531-8.066406 4.539062-12.75 6.316406-.898437.339844-1.808594.660156-2.726562.957032v-89.683594c0-4.28125 3.46875-7.734375 7.738281-7.734375 4.273437 0 7.738281 3.457031 7.738281 7.738281zm0 0"/><path d="m183.054688 293.6875v53.238281c-3.332032 5.085938-8.285157 12.238281-15.476563 19.121094v-72.359375c0-4.28125 3.46875-7.738281 7.738281-7.738281 4.273438 0 7.738282 3.457031 7.738282 7.738281zm0 0"/></g></svg>