<svg height="512pt" viewBox="-105 0 512 512.00103" width="512pt" xmlns="http://www.w3.org/2000/svg"><path d="m98.835938 49.417969c0 27.292969-22.125 49.414062-49.417969 49.414062s-49.417969-22.121093-49.417969-49.414062 22.125-49.417969 49.417969-49.417969 49.417969 22.125 49.417969 49.417969zm0 0" fill="#715539"/><path d="m214.621094 277.871094h-137.777344c-20.730469 0-37.535156-16.703125-37.523438-37.300782l.054688-117.554687c0-58.382813 47.640625-105.714844 106.410156-105.714844 58.769532 0 106.414063 47.332031 106.414063 105.714844l-.054688 117.59375c-.011719 20.582031-16.808593 37.261719-37.523437 37.261719zm0 0" fill="#a17852"/><path d="m145.785156 17.300781c-4.902344 0-9.722656.339844-14.449218.976563 51.933593 7.003906 91.960937 51.222656 91.960937 104.738281l-.050781 117.59375c-.011719 20.582031-16.808594 37.261719-37.527344 37.261719h28.902344c20.714844 0 37.511718-16.679688 37.523437-37.261719l.054688-117.59375c0-58.382813-47.640625-105.714844-106.414063-105.714844zm0 0" fill="#93694d"/><path d="m275.933594 444.136719v60.070312c0 4.300781-3.484375 7.792969-7.78125 7.792969h-240.519532c-4.308593 0-7.804687-3.496094-7.804687-7.792969v-60.070312c0-30.441407 20.011719-57.269531 49.183594-65.960938l13.832031-4.117187c7.023438-2.078125 12.808594-6.628906 16.535156-12.53125 2.40625-3.824219 3.960938-8.214844 4.414063-12.871094.09375-.953125.136719-1.914062.136719-2.882812v-24.484376l81.070312-17.148437v39.59375c0 7.53125 2.851562 14.550781 7.675781 19.851563 3.539063 3.886718 8.132813 6.851562 13.410157 8.4375l20.675781 6.15625c29.183593 8.6875 49.171875 35.515624 49.171875 65.957031zm0 0" fill="#ffdba9"/><path d="m226.761719 378.175781-20.675781-6.152343c-5.277344-1.585938-9.871094-4.550782-13.40625-8.4375-4.828126-5.300782-7.675782-12.324219-7.675782-19.851563v-39.597656l-81.074218 17.148437v5.8125l51.964843-10.992187v39.597656c0 7.527344 2.851563 14.550781 7.675781 19.847656 3.539063 3.886719 8.132813 6.855469 13.410157 8.4375l20.675781 6.15625c29.183594 8.691407 49.171875 35.519531 49.171875 65.960938v55.894531h21.324219c4.296875 0 7.78125-3.492188 7.78125-7.789062v-60.070313c0-30.445313-19.988282-57.273437-49.171875-65.964844zm0 0" fill="#ffc473"/><path d="m185.003906 304.136719v32.226562c-14.246094 9.832031-31.507812 15.574219-50.125 15.574219h-7.148437c-8.300781 0-16.324219-1.140625-23.9375-3.28125.09375-.953125.136719-1.914062.136719-2.882812v-24.484376zm0 0" fill="#ffc473"/><path d="m39.320312 141.890625v99.105469c0 48.832031 39.585938 88.417968 88.414063 88.417968h7.148437c48.832032 0 88.417969-39.585937 88.417969-88.417968v-76.125l-67.824219-73.878906zm0 0" fill="#ffdba9"/><path d="m226.570312 223.5625h-3.269531v-58.691406h3.269531c16.207032 0 29.34375 13.140625 29.34375 29.347656 0 16.203125-13.136718 29.34375-29.34375 29.34375zm0 0" fill="#ffc473"/><path d="m86.1875 182.324219c0 5.050781-4.09375 9.144531-9.140625 9.144531-5.050781 0-9.144531-4.09375-9.144531-9.144531 0-5.046875 4.09375-9.140625 9.144531-9.140625 5.046875 0 9.140625 4.09375 9.140625 9.140625zm0 0" fill="#57555c"/><path d="m159.335938 182.324219c0 5.050781-4.09375 9.144531-9.140626 9.144531-5.050781 0-9.144531-4.09375-9.144531-9.144531 0-5.046875 4.09375-9.140625 9.144531-9.140625 5.046876 0 9.140626 4.09375 9.140626 9.140625zm0 0" fill="#57555c"/><path d="m111.441406 280.621094c-8.296875 0-14.90625-2.3125-18.109375-3.691406-4.015625-1.726563-5.871093-6.386719-4.140625-10.402344 1.730469-4.019532 6.390625-5.871094 10.40625-4.144532 3.222656 1.386719 11.75 4.234376 21.328125.726563 7.324219-2.6875 11.691407-7.828125 13.644531-10.65625 2.480469-3.601563 7.414063-4.503906 11.015626-2.023437 3.597656 2.484374 4.503906 7.417968 2.019531 11.015624-3.019531 4.375-9.789063 12.339844-21.230469 16.535157-5.296875 1.941406-10.371094 2.640625-14.933594 2.640625zm0 0" fill="#c06100"/><path d="m278.636719 76.234375-43.816407-57.613281-38.476562 27.300781c-3.644531 2.585937-5.660156 6.9375-5.191406 11.386719 2.261718 21.453125 15.484375 39.636718 33.964844 48.859375 3.84375 1.917969 8.429687 1.59375 11.949218-.867188zm0 0" fill="#fff"/><path d="m223.296875 164.871094c-3.070313-.601563-25.621094 0-40.132813-18.902344-13.9375-18.148438-15.957031-30.644531-27.6875-54.976562 0 0-28.242187 44.554687-60.371093 50.898437-8.828125 2.652344-18.1875 4.078125-27.890625 4.078125s-19.0625-1.425781-27.894532-4.078125l6.140626-34.242187 80.25-51.386719h44.34375l42.238281 64.761719 11.003906 11.96875zm0 0" fill="#a17852"/><path d="m301.617188 49.417969c0 27.292969-22.125 49.414062-49.417969 49.414062s-49.417969-22.121093-49.417969-49.414062 22.125-49.417969 49.417969-49.417969 49.417969 22.125 49.417969 49.417969zm0 0" fill="#715539"/><path d="m275.9375 504.210938v-60.070313c0-30.390625-19.925781-57.175781-49.023438-65.910156-32.53125 21.027343-70.707031 29.140625-106.710937 20.890625-19.550781-4.480469-35.398437-13.082032-47.582031-22.011719l-3.609375 1.074219c-29.175781 8.6875-49.179688 35.515625-49.179688 65.957031v60.070313c0 4.296874 3.492188 7.789062 7.796875 7.789062h240.523438c4.292968 0 7.785156-3.496094 7.785156-7.789062zm0 0" fill="#ff52a1"/><path d="m229.5 379.054688c-.863281-.289063-1.722656-.566407-2.585938-.824219-8.105468 5.238281-16.558593 9.675781-25.246093 13.257812 26.988281 9.867188 45.164062 35.59375 45.164062 64.617188v55.894531h21.320313c2.324218 0 4.402344-1.027344 5.832031-2.640625 1.210937-1.375 1.953125-3.175781 1.953125-5.152344v-60.070312c0-29.480469-18.746094-55.574219-46.4375-65.082031zm0 0" fill="#e80d6a"/></svg>