<svg height="511pt" viewBox="-124 1 511 511.99897" width="511pt" xmlns="http://www.w3.org/2000/svg"><path d="m262.816406 130.640625-.085937 310.808594h-242.261719l.085938-309.480469v-1.328125c0-72.15625 54.226562-130.640625 121.132812-130.640625 16.753906 0 32.722656 3.667969 47.238281 10.308594 14.460938 6.609375 27.472657 16.152344 38.40625 27.949218 21.933594 23.644532 35.484375 56.304688 35.484375 92.382813zm0 0" fill="#57555c"/><path d="m208.902344 199.789062-.066406 241.660157h-188.367188l.066406-240.628907v-1.03125c0-56.105468 42.164063-101.578124 94.183594-101.578124 13.027344 0 25.445312 2.851562 36.730469 8.015624 11.242187 5.136719 21.363281 12.558594 29.863281 21.730469 17.050781 18.382813 27.589844 43.777344 27.589844 71.832031zm0 0" fill="#3c3b41"/><path d="m262.816406 442.496094v61.523437c0 4.398438-3.578125 7.980469-7.976562 7.980469h-246.351563c-4.410156 0-7.988281-3.582031-7.988281-7.980469v-61.523437c0-31.183594 20.496094-58.660156 50.375-67.554688l14.167969-4.226562c7.191406-2.132813 13.121093-6.792969 16.941406-12.828125 2.898437-4.59375 4.582031-9.988281 4.65625-15.679688.011719-.152343.011719-.3125.011719-.464843v-22.988282l83.027344-19.65625v40.554688c0 7.71875 2.921874 14.910156 7.859374 20.332031 3.621094 3.980469 8.324219 7.023437 13.734376 8.636719l2.828124.84375 18.351563 5.476562c29.890625 8.894532 50.363281 36.371094 50.363281 67.554688zm0 0" fill="#ffdba9"/><path d="m212.453125 374.941406-18.351563-5.476562-2.828124-.839844c-5.410157-1.617188-10.113282-4.660156-13.734376-8.636719-4.941406-5.425781-7.863281-12.617187-7.863281-20.335937v-40.554688l-83.023437 19.65625v5.644532l53.210937-12.597657v40.550781c0 7.722657 2.925781 14.914063 7.863281 20.335938 3.621094 3.980469 8.324219 7.023438 13.734376 8.636719l2.828124.84375 18.351563 5.476562c29.886719 8.894531 50.363281 36.371094 50.363281 67.550781v56.804688h21.835938c4.398437 0 7.976562-3.582031 7.976562-7.980469v-61.523437c0-31.183594-20.472656-58.660156-50.363281-67.554688zm0 0" fill="#ffc473"/><path d="m208.902344 217.292969h-.796875v-61.558594h.796875c17 0 30.78125 13.78125 30.78125 30.78125s-13.78125 30.777344-30.78125 30.777344zm0 0" fill="#ffc473"/><g fill="#fff"><path d="m138.753906 445.113281c40.492188-2.15625 75.527344-26.40625 93.082032-60.988281-5.847657-3.957031-12.351563-7.089844-19.382813-9.183594l-18.351563-5.476562-65.085937 12.625-63.972656-11.375-14.167969 4.226562c-6.335938 1.886719-12.246094 4.617188-17.632812 8.03125 19.261718 39.089844 60.519531 64.535156 105.511718 62.140625zm0 0"/><path d="m232.007812 384.242188c.386719.261718.777344.53125 1.171876.804687-.386719-.273437-.78125-.539063-1.171876-.804687zm0 0"/><path d="m.503906 504.019531-.003906-.019531v.023438c0 .035156.003906.070312.003906.109374 0-.039062 0-.082031 0-.113281zm0 0"/><path d="m33.136719 383.039062c-.230469.148438-.457031.292969-.6875.441407.230469-.144531.460937-.296875.6875-.441407zm0 0"/></g><path d="m169.679688 299.097656v30.558594c-14.527344 9.984375-32.113282 15.816406-51.066407 15.816406h-7.863281c-8.355469 0-16.433594-1.132812-24.109375-3.265625.011719-.152343.011719-.3125.011719-.464843v-22.988282zm0 0" fill="#ffc473"/><path d="m20.464844 136.039062v98.660157c0 49.863281 40.425781 90.289062 90.289062 90.289062h7.859375c49.863281 0 90.289063-40.425781 90.289063-90.289062v-78.964844c-.960938-11.421875-4.867188-18.246094-8.472656-22.441406-9.992188-11.625-22.992188-9.285157-36.660157-20.757813-8.121093-6.8125-12.46875-15.140625-14.890625-21.203125-8.417968 9.566407-24.46875 25.207031-49.355468 35.851563-34.746094 14.859375-66.070313 11.15625-79.058594 8.855468zm0 0" fill="#ffdba9"/><path d="m137.101562 382.089844v63.023437c0 4.464844-3.621093 8.089844-8.085937 8.089844-4.460937 0-8.085937-3.625-8.085937-8.089844v-63.023437c0-1.347656.324218-2.609375.90625-3.71875l7.179687 3.71875 7.171875-3.71875c.59375 1.109375.914062 2.371094.914062 3.71875zm0 0" fill="#efefef"/><path d="m68.46875 182.960938c0 5.171874-4.191406 9.363281-9.363281 9.363281s-9.363281-4.191407-9.363281-9.363281c0-5.171876 4.191406-9.363282 9.363281-9.363282s9.363281 4.191406 9.363281 9.363282zm0 0" fill="#57555c"/><path d="m143.390625 182.960938c0 5.171874-4.191406 9.363281-9.363281 9.363281s-9.363282-4.191407-9.363282-9.363281c0-5.171876 4.191407-9.363282 9.363282-9.363282s9.363281 4.191406 9.363281 9.363282zm0 0" fill="#57555c"/><path d="m94.332031 274.992188c-8.492187 0-15.257812-2.371094-18.535156-3.78125-4.101563-1.765626-5.996094-6.523438-4.226563-10.625 1.765626-4.101563 6.519532-5.996094 10.625-4.226563 3.300782 1.421875 12.042969 4.339844 21.863282.742187 7.507812-2.753906 11.984375-8.027343 13.980468-10.921874 2.539063-3.679688 7.574219-4.601563 11.25-2.066407 3.675782 2.535157 4.601563 7.574219 2.066407 11.25-3.089844 4.476563-10.023438 12.632813-21.734375 16.925781-5.421875 1.984376-10.617188 2.703126-15.289063 2.703126zm0 0" fill="#c06100"/><path d="m231.839844 384.128906c-4.476563 8.808594-10.09375 16.949219-16.648438 24.226563-8.496094-9.5625-19.644531-16.863281-32.550781-20.710938l-18.355469-5.476562-2.824218-.84375c-2.996094-.894531-5.789063-2.230469-8.28125-3.921875l40.921874-7.9375 18.351563 5.476562c6.953125 2.070313 13.402344 5.15625 19.203125 9.046875.035156.042969.074219.066407.121094.085938.019531.023437.039062.042969.0625.054687zm0 0" fill="#efefef"/><path d="m129.015625 382.089844-8.085937 9.347656-13.023438 15.066406c-2.882812 3.320313-8.023438 3.363282-10.957031.074219l-31.90625-35.863281 17.222656-12.832032 39.570313 20.488282zm0 0" fill="#beccd3"/><path d="m194.101562 369.464844-33.027343 37.113281c-2.925781 3.289063-8.078125 3.246094-10.945313-.074219l-13.027344-15.066406-8.085937-9.347656 7.171875-3.71875 39.570312-20.488282zm0 0" fill="#beccd3"/><path d="m188.925781 10.308594c-12.445312 30.417968-33.511719 70.582031-33.511719 70.582031v.007813c-11.777343 24.425781-52.4375 55.144531-106.964843 55.144531-9.703125 0-19.0625-1.421875-27.894531-4.074219v-1.328125c0-72.15625 54.226562-130.640625 121.132812-130.640625 16.753906 0 32.722656 3.667969 47.238281 10.308594zm0 0" fill="#3c3b41"/><path d="m262.816406 504.019531v-61.527343c0-23.839844-11.980468-45.507813-30.980468-58.367188-17.554688 34.578125-52.589844 58.832031-93.082032 60.988281-44.992187 2.394531-86.25-23.050781-105.511718-62.140625-20.011719 12.695313-32.738282 34.953125-32.738282 59.519532v61.523437c0 4.402344 3.578125 7.980469 7.988282 7.980469h246.347656c4.398437 0 7.976562-3.578125 7.976562-7.976563zm0 0" fill="#00989e"/><path d="m232.453125 384.550781c-.203125-.152343-.410156-.28125-.613281-.421875-.023438-.011718-.042969-.03125-.066406-.054687.226562.152343.453124.304687.679687.476562zm0 0" fill="#ffc473"/><path d="m262.816406 442.496094v61.523437c0 4.398438-3.578125 7.980469-7.976562 7.980469h-21.835938v-56.804688c0-17.726562-6.609375-34.246093-17.8125-46.839843 6.554688-7.277344 12.175782-15.417969 16.648438-24.226563.203125.140625.410156.269532.613281.421875.152344.09375.3125.203125.476563.324219 18.371093 12.9375 29.886718 34.234375 29.886718 57.621094zm0 0" fill="#00777b"/></svg>