<svg height="512pt" viewBox="-118 0 512 512.00309" width="512pt" xmlns="http://www.w3.org/2000/svg"><path d="m77.769531 49.050781v83.078125c0 4.105469-3.289062 7.417969-7.359375 7.417969h-36.445312c-8.71875 0-16.664063-3.3125-22.667969-8.757813-6.9375-6.261718-11.296875-15.359374-11.296875-25.472656v-57.253906c0-18.910156 15.210938-34.242188 33.964844-34.242188h8.851562c1.441406 0 2.863282.09375 4.265625.261719 17.300781 2.121094 30.6875 16.96875 30.6875 34.96875zm0 0" fill="#e1e1e3"/><path d="m275.011719 439.617188v64.074218c0 4.582032-3.6875 8.308594-8.242188 8.308594h-254.578125c-4.554687 0-8.253906-3.726562-8.253906-8.308594v-64.074218c0-32.476563 21.175781-61.097657 52.058594-70.371094l14.640625-4.394532c7.429687-2.222656 13.550781-7.070312 17.496093-13.363281 3.082032-4.914062 4.824219-10.707031 4.824219-16.8125v-34.988281l85.804688-9.421875v42.238281c0 8.039063 3.027343 15.523438 8.128906 21.175782 3.738281 4.140624 8.601563 7.308593 14.199219 8.992187l21.875 6.574219c30.890625 9.273437 52.046875 37.894531 52.046875 70.371094zm0 0" fill="#ffdba9"/><path d="m178.761719 290.265625v29.972656c-15.992188 11.621094-35.625 18.453125-56.828125 18.453125-10.089844 0-19.816406-1.546875-28.976563-4.421875v-34.582031zm0 0" fill="#ffc473"/><path d="m77.769531 49.050781v83.078125c0 4.105469-3.289062 7.417969-7.359375 7.417969h-36.445312c-8.71875 0-16.664063-3.3125-22.667969-8.757813v-40.707031c0-22.503906 7.511719-43.222656 20.152344-59.769531 4.574219-6 9.832031-11.453125 15.632812-16.230469 17.300781 2.121094 30.6875 16.96875 30.6875 34.96875zm0 0" fill="#f7f7f7"/><path d="m219.308594 98.128906v120.96875c0 54.199219-43.597656 98.128906-97.375 98.128906-53.769532 0-97.367188-43.929687-97.367188-98.128906v-120.96875c0-22.503906 7.511719-43.222656 20.15625-59.765625 17.792969-23.335937 45.769532-38.363281 77.210938-38.363281 26.890625 0 51.230468 10.988281 68.839844 28.746094 17.632812 17.757812 28.535156 42.289062 28.535156 69.382812zm0 0" fill="#ffdba9"/><path d="m231.074219 206.453125h-11.777344v-66.90625h11.777344c16.308593 0 29.53125 13.222656 29.53125 29.53125v7.847656c0 16.308594-13.21875 29.527344-29.53125 29.527344zm0 0" fill="#ffc473"/><path d="m65.136719 160.316406c0-5.386718-4.332031-9.753906-9.675781-9.753906-5.347657 0-9.679688 4.367188-9.679688 9.753906 0 5.386719 4.332031 9.753906 9.679688 9.753906 5.34375 0 9.675781-4.367187 9.675781-9.753906zm0 0" fill="#57555c"/><path d="m148.648438 160.316406c0-5.386718-4.332032-9.753906-9.675782-9.753906s-9.675781 4.367188-9.675781 9.753906c0 5.386719 4.332031 9.753906 9.675781 9.753906s9.675782-4.367187 9.675782-9.753906zm0 0" fill="#57555c"/><path d="m100.898438 264.515625c-8.660157 0-15.558594-2.429687-18.902344-3.882813-3.921875-1.703124-5.730469-6.285156-4.042969-10.234374 1.6875-3.953126 6.234375-5.773438 10.15625-4.074219 3.480469 1.511719 12.699219 4.613281 23.054687.789062 7.929688-2.929687 12.644532-8.53125 14.753907-11.613281 2.421875-3.539062 7.234375-4.433594 10.75-1.988281 3.515625 2.441406 4.398437 7.292969 1.976562 10.832031-3.152343 4.601562-10.21875 12.984375-22.160156 17.394531-5.527344 2.042969-10.824219 2.777344-15.585937 2.777344zm0 0" fill="#c06100"/><path d="m275.015625 503.691406v-64.078125c0-32.476562-21.164063-61.09375-52.046875-70.363281l-21.882812-6.574219c-5.59375-1.6875-10.453126-4.851562-14.195313-9-.144531-.160156-.28125-.328125-.425781-.488281-.421875 2.585938-4.0625 20.28125-25.449219 30.828125-20.152344 9.9375-22.359375 37.585937-22.59375 44.507813-.03125.886718-.757813 1.585937-1.636719 1.585937-.882812 0-1.609375-.699219-1.636718-1.585937-.238282-6.921876-2.445313-34.566407-22.59375-44.507813-21.796876-10.75-25.160157-28.929687-25.472657-30.964844-3.941406 5.527344-9.644531 9.769531-16.445312 11.804688l-14.640625 4.398437c-30.882813 9.269532-52.058594 37.886719-52.058594 70.359375v64.082031c0 4.582032 3.699219 8.308594 8.257812 8.308594h254.578126c4.546874-.003906 8.242187-3.730468 8.242187-8.3125zm0 0" fill="#aeadb3"/><path d="m222.96875 369.25-21.882812-6.574219c-5.59375-1.6875-10.453126-4.851562-14.195313-9-.144531-.160156-.28125-.328125-.425781-.488281-.332032 2.023438-2.632813 13.289062-13.851563 23.148438.1875.058593.367188.128906.554688.1875l21.882812 6.574218c30.882813 9.269532 52.042969 37.886719 52.042969 70.359375v58.542969h19.679688c4.546874 0 8.242187-3.726562 8.242187-8.308594v-64.078125c0-32.476562-21.164063-61.09375-52.046875-70.363281zm0 0" fill="#919191"/><path d="m144.847656 470.183594c0-5.382813-4.332031-9.75-9.675781-9.75s-9.675781 4.367187-9.675781 9.75c0 5.386718 4.332031 9.753906 9.675781 9.753906s9.675781-4.367188 9.675781-9.753906zm0 0" fill="#fff"/><path d="m229.078125 139.546875h-36.285156c-18.832031 0-34.097657-15.265625-34.097657-34.097656v-57.523438c0-18.832031 15.265626-34.097656 34.097657-34.097656h8.582031c19.378906 0 35.089844 15.707031 35.089844 35.085937v83.246094c0 4.082032-3.308594 7.386719-7.386719 7.386719zm0 0" fill="#f7f7f7"/><path d="m201.511719 13.828125h-8.851563c-2.378906 0-4.695312.246094-6.9375.714844 15.925782 3.289062 27.902344 17.488281 27.902344 34.511719v83.078124c0 4.09375-3.292969 7.414063-7.355469 7.414063h22.835938c4.0625 0 7.359375-3.320313 7.359375-7.414063v-83.078124c0-19.457032-15.648438-35.226563-34.953125-35.226563zm0 0" fill="#e1e1e3"/><g fill="#9d9c9f"><path d="m45.78125 202.703125c-23.1875 0-42.054688-19.015625-42.054688-42.386719s18.867188-42.386718 42.054688-42.386718c23.191406 0 42.058594 19.015624 42.058594 42.386718s-18.867188 42.386719-42.058594 42.386719zm0-69.195313c-14.664062 0-26.597656 12.027344-26.597656 26.808594s11.933594 26.808594 26.597656 26.808594c14.667969 0 26.601562-12.027344 26.601562-26.808594s-11.933593-26.808594-26.601562-26.808594zm0 0"/><path d="m143.148438 202.703125c-23.191407 0-42.054688-19.015625-42.054688-42.386719s18.863281-42.386718 42.054688-42.386718c23.191406 0 42.054687 19.015624 42.054687 42.386718s-18.863281 42.386719-42.054687 42.386719zm0-69.195313c-14.667969 0-26.597657 12.027344-26.597657 26.808594s11.929688 26.808594 26.597657 26.808594c14.667968 0 26.597656-12.027344 26.597656-26.808594s-11.929688-26.808594-26.597656-26.808594zm0 0"/><path d="m219.308594 131.757812v15.578126h-46.710938c-4.265625 0-7.726562-3.488282-7.726562-7.789063s3.460937-7.789063 7.726562-7.789063zm0 0"/><path d="m108.820312 166.40625h-28.710937c-4.265625 0-7.726563-3.488281-7.726563-7.789062 0-4.304688 3.460938-7.789063 7.726563-7.789063h28.710937c4.265626 0 7.726563 3.484375 7.726563 7.789063 0 4.300781-3.457031 7.789062-7.726563 7.789062zm0 0"/></g></svg>