<svg height="512pt" viewBox="-99 0 512 512.00103" width="512pt" xmlns="http://www.w3.org/2000/svg"><path d="m295.5625 194.957031c11.367188-4.820312 19.339844-16.078125 19.339844-29.203125 0-14.011718-9.085938-25.894531-21.6875-30.089844-3.300782-1.097656-5.59375-4.101562-5.59375-7.582031v-.339843c0-9.539063-4.210938-18.089844-10.875-23.902344-3.425782-2.992188-4.773438-7.695313-3.375-12.023438.988281-3.066406 1.523437-6.335937 1.523437-9.730468 0-14.195313-9.324219-26.207032-22.183593-30.25-4.476563-1.40625-7.367188-5.632813-7.386719-10.324219-.007813-1.761719-.160157-3.558594-.476563-5.382813-2.363281-13.675781-13.617187-24.363281-27.398437-25.984375-5.714844-.671875-11.171875.179688-16.019531 2.199219-3.410157 1.425781-7.285157.542969-9.796876-2.167969-5.792968-6.257812-14.070312-10.175781-23.269531-10.175781-7.886719 0-15.097656 2.882812-20.648437 7.648438-3.054688 2.625-7.492188 2.84375-10.933594.738281-4.8125-2.945313-10.472656-4.644531-16.53125-4.644531-17.515625 0-31.714844 14.199218-31.714844 31.714843v.078125c.007813 2.128906-1.832031 3.742188-3.949218 3.558594-.898438-.078125-1.808594-.117188-2.726563-.117188-15.742187 0-28.808594 11.46875-31.289063 26.507813-.519531 3.132813-2.4375 5.878906-5.273437 7.304687-7.464844 3.753907-20.972656 12.835938-21.542969 29.613282-.15625 4.59375.910156 8.960937 2.714844 12.902344 1.574219 3.4375 1.082031 7.417968-1.253906 10.386718-4.25 5.394532-6.785156 12.195313-6.785156 19.597656 0 3.917969.714843 7.671876 2.015624 11.140626 2.316407 6.171874.472657 13.15625-4.804687 17.109374-10.039063 7.53125-16.335937 19.785157-15.578125 33.46875 1.054688 19.113282 16.164062 34.839844 35.21875 36.644532.136719.011718.265625.011718.398438.023437-4.046876 6.320313-6.253907 13.933594-5.820313 22.089844.988281 18.644531 15.988281 33.894531 34.613281 35.148437 21.746094 1.46875 39.84375-15.734374 39.84375-37.167968 0-2.816406-.324218-5.558594-.914062-8.199219 3.589844-4.753906 5.878906-10.535156 6.308594-16.789063 1.28125-18.535156-13.375-33.964843-31.636719-33.964843 0-12.417969 151.585937-6.863281 151.585937 8.886719 0 5.277343 1.292969 10.25 3.574219 14.625-15.691406 5.085937-26.828125 20.292968-25.683594 37.925781 1.195313 18.433593 16.097657 33.410156 34.527344 34.679687 21.773437 1.503906 39.902344-15.710937 39.902344-37.164062 0-5.742188-1.300781-11.175782-3.625-16.03125-1.453125-3.039063-.703125-6.691406 1.988281-8.71875 7.5625-5.695313 12.5625-14.667969 12.738281-24.746094.066407-3.675781-.496093-7.214844-1.585937-10.511719-1.160156-3.511719.664062-7.339843 4.066406-8.78125zm0 0" fill="#efefef"/><path d="m292.71875 444.257812v59.964844c0 4.292969-3.484375 7.777344-7.777344 7.777344h-240.109375c-4.300781 0-7.789062-3.484375-7.789062-7.777344v-59.964844c0-30.390624 19.964843-57.171874 49.097656-65.855468l13.808594-4.113282c6.425781-1.910156 11.808593-5.867187 15.519531-11.054687.351562-.476563.671875-.960937.992188-1.453125 2.640624-4.1875 4.238281-9.054688 4.503906-14.203125.03125-.503906.042968-1.007813.042968-1.523437v-25.195313l80.929688-16.375v39.527344c0 7.3125 2.679688 14.128906 7.261719 19.355469.121093.15625.257812.308593.402343.464843 3.527344 3.878907 8.117188 6.847657 13.386719 8.425781l20.644531 6.144532c29.132813 8.683594 49.085938 35.464844 49.085938 65.855468zm0 0" fill="#ffdba9"/><path d="m243.632812 378.402344-20.644531-6.144532c-5.269531-1.578124-9.859375-4.546874-13.386719-8.425781-.144531-.15625-.277343-.308593-.402343-.464843-4.578125-5.226563-7.261719-12.042969-7.261719-19.355469v-39.527344l-80.929688 16.375v8.589844l52.015626-10.527344v39.527344c0 7.3125 2.679687 14.128906 7.257812 19.359375.125.152344.257812.308594.402344.460937 3.527344 3.878907 8.117187 6.847657 13.386718 8.425781l20.644532 6.144532c29.132812 8.683594 49.085937 35.464844 49.085937 65.855468v53.304688h21.140625c4.289063 0 7.777344-3.484375 7.777344-7.773438v-59.964843c0-30.394531-19.953125-57.175781-49.085938-65.859375zm0 0" fill="#ffc473"/><path d="m293.214844 135.664062c-3.300782-1.097656-5.59375-4.101562-5.59375-7.582031v-.339843c0-9.539063-4.210938-18.089844-10.875-23.902344-3.425782-2.992188-4.773438-7.695313-3.375-12.023438.988281-3.066406 1.523437-6.335937 1.523437-9.730468 0-14.195313-9.324219-26.207032-22.183593-30.25-4.476563-1.40625-7.367188-5.632813-7.386719-10.324219-.007813-1.761719-.160157-3.558594-.476563-5.382813-2.363281-13.675781-13.617187-24.363281-27.398437-25.984375-5.714844-.671875-11.171875.179688-16.019531 2.199219-3.410157 1.425781-7.285157.542969-9.796876-2.167969-5.792968-6.257812-14.070312-10.175781-23.269531-10.175781-2.648437 0-5.21875.332031-7.675781.945312 64.308594 33.277344 108.265625 100.414063 108.265625 177.824219 0 44.59375-14.59375 85.78125-39.261719 119.050781 3.84375 1.707032 8.011719 2.789063 12.386719 3.089844 21.773437 1.503906 39.902344-15.710937 39.902344-37.164062 0-5.742188-1.300781-11.175782-3.625-16.03125-1.453125-3.039063-.703125-6.691406 1.988281-8.71875 7.5625-5.695313 12.5625-14.667969 12.738281-24.746094.066407-3.675781-.496093-7.214844-1.585937-10.511719-1.160156-3.511719.664062-7.339843 4.066406-8.78125 11.367188-4.820312 19.339844-16.078125 19.339844-29.203125 0-14.011718-9.085938-25.890625-21.6875-30.089844zm0 0" fill="#e1e1e3"/><path d="m201.9375 304.484375v29.980469c-15.085938 10.867187-33.597656 17.261718-53.601562 17.261718-9.53125 0-18.726563-1.453124-27.371094-4.144531.03125-.507812.042968-1.011719.042968-1.527343v-25.191407zm0 0" fill="#ffc473"/><path d="m240.171875 98.117188v139.765624c0 50.726563-41.117187 91.839844-91.839844 91.839844-50.714843 0-91.828125-41.113281-91.828125-91.839844v-139.765624l98.773438-39.183594zm0 0" fill="#ffdba9"/><path d="m249.691406 226.058594h-9.523437v-62.617188h9.523437c16.257813 0 29.4375 13.179688 29.4375 29.441406v3.738282c0 16.257812-13.179687 29.4375-29.4375 29.4375zm0 0" fill="#ffc473"/><path d="m94.765625 182.878906c0 5.039063-4.089844 9.128906-9.128906 9.128906-5.042969 0-9.128907-4.089843-9.128907-9.128906 0-5.042968 4.085938-9.128906 9.128907-9.128906 5.039062 0 9.128906 4.085938 9.128906 9.128906zm0 0" fill="#57555c"/><path d="m173.53125 182.878906c0 5.039063-4.085938 9.128906-9.125 9.128906-5.042969 0-9.128906-4.089843-9.128906-9.128906 0-5.042968 4.085937-9.128906 9.128906-9.128906 5.039062 0 9.125 4.085938 9.125 9.128906zm0 0" fill="#57555c"/><path d="m128.492188 280.839844c-8.25 0-14.820313-2.300782-18.003907-3.671875-3.925781-1.691407-5.734375-6.242188-4.042969-10.164063 1.691407-3.921875 6.238282-5.730468 10.164063-4.042968 3.234375 1.394531 11.792969 4.253906 21.417969.730468 7.359375-2.699218 11.742187-7.863281 13.699218-10.703125 2.425782-3.515625 7.242188-4.402343 10.757813-1.976562s4.402344 7.242187 1.976563 10.761719c-3 4.351562-9.734376 12.269531-21.113282 16.441406-5.265625 1.929687-10.316406 2.625-14.855468 2.625zm0 0" fill="#c06100"/><path d="m78.707031 222.992188h-4.394531c-20.90625 0-37.914062-17.011719-37.914062-37.917969v-4.390625c0-20.910156 17.007812-37.917969 37.914062-37.917969h4.394531c20.90625 0 37.914063 17.007813 37.914063 37.917969v4.390625c0 20.90625-17.007813 37.917969-37.914063 37.917969zm-4.394531-64.757813c-12.375 0-22.445312 10.070313-22.445312 22.449219v4.390625c0 12.378906 10.070312 22.449219 22.445312 22.449219h4.394531c12.375 0 22.445313-10.070313 22.445313-22.449219v-4.390625c0-12.378906-10.070313-22.449219-22.445313-22.449219zm0 0" fill="#9d9c9f"/><path d="m170.539062 222.992188h-4.390624c-20.910157 0-37.917969-17.011719-37.917969-37.917969v-4.390625c0-20.910156 17.011719-37.917969 37.917969-37.917969h4.390624c20.90625 0 37.914063 17.007813 37.914063 37.917969v4.390625c.003906 20.90625-17.007813 37.917969-37.914063 37.917969zm-4.390624-64.757813c-12.378907 0-22.449219 10.070313-22.449219 22.449219v4.390625c0 12.378906 10.070312 22.449219 22.449219 22.449219h4.390624c12.378907 0 22.445313-10.070313 22.445313-22.449219v-4.390625c0-12.378906-10.066406-22.449219-22.445313-22.449219zm0 0" fill="#9d9c9f"/><path d="m292.71875 444.257812v59.964844c0 4.292969-3.484375 7.777344-7.777344 7.777344h-240.109375c-4.300781 0-7.789062-3.484375-7.789062-7.777344v-59.964844c0-30.390624 19.964843-57.171874 49.097656-65.855468l13.808594-4.113282c6.425781-1.910156 11.808593-5.867187 15.519531-11.054687.289062 1.898437 3.453125 18.933594 24.019531 28.988281 19.003907 9.300782 21.085938 35.175782 21.304688 41.648438.03125.835937.722656 1.488281 1.546875 1.488281.835937 0 1.515625-.652344 1.542968-1.488281.21875-6.472656 2.300782-32.347656 21.308594-41.648438 20.148438-9.859375 23.605469-26.410156 24.003906-28.855468.125.15625.257813.308593.40625.464843 3.523438 3.875 8.113282 6.847657 13.382813 8.425781l20.644531 6.144532c29.136719 8.683594 49.089844 35.464844 49.089844 65.855468zm0 0" fill="#ef5361"/><path d="m243.632812 378.402344-20.644531-6.144532c-5.269531-1.578124-9.859375-4.546874-13.386719-8.425781-.144531-.15625-.277343-.308593-.402343-.464843-.335938 2.027343-2.78125 13.761718-15.105469 23.335937l20.621094 6.136719c29.132812 8.683594 49.085937 35.464844 49.085937 65.855468v53.304688h21.140625c4.289063 0 7.777344-3.484375 7.777344-7.773438v-59.964843c0-30.394531-19.953125-57.175781-49.085938-65.859375zm0 0" fill="#dc4250"/><path d="m169.949219 472.867188c0 5.039062-4.085938 9.128906-9.128907 9.128906-5.039062 0-9.125-4.089844-9.125-9.128906 0-5.042969 4.085938-9.128907 9.125-9.128907 5.042969 0 9.128907 4.085938 9.128907 9.128907zm0 0" fill="#fff"/><path d="m240.167969 171.175781h-44.855469c-4.273438 0-7.734375-3.460937-7.734375-7.730469 0-4.273437 3.464844-7.734374 7.734375-7.734374h44.855469c4.273437 0 7.734375 3.460937 7.734375 7.734374 0 4.269532-3.460938 7.730469-7.734375 7.730469zm0 0" fill="#9d9c9f"/><path d="m135.964844 189.023438h-27.078125c-4.273438 0-7.734375-3.464844-7.734375-7.734376 0-4.273437 3.464844-7.734374 7.734375-7.734374h27.078125c4.273437 0 7.734375 3.460937 7.734375 7.734374 0 4.269532-3.460938 7.734376-7.734375 7.734376zm0 0" fill="#9d9c9f"/><path d="m256.53125 162.167969c-15.664062 0-28.359375-12.695313-28.359375-28.359375 0-.246094.011719-.488282.019531-.734375-12.578125-2.90625-21.957031-14.167969-21.957031-27.625 0-4.910157 1.253906-9.527344 3.449219-13.550781.671875-1.230469-.246094-2.699219-1.644532-2.609376-.597656.035157-1.199218.054688-1.804687.054688-10.769531 0-20.128906-6.003906-24.929687-14.84375-.667969-1.230469-2.40625-1.230469-3.074219 0-4.800781 8.839844-14.164063 14.84375-24.929688 14.84375-7.289062 0-13.933593-2.753906-18.957031-7.273438-.746094-.671874-1.902344-.570312-2.527344.21875-5.191406 6.597657-13.25 10.835938-22.292968 10.835938-6.011719 0-11.582032-1.871094-16.167969-5.0625-1.1875-.824219-2.8125-.003906-2.808594 1.441406 0 14.441406-10.109375 26.515625-23.632813 29.546875-1.117187.253907-1.695312 1.460938-1.195312 2.496094 1.78125 3.710937 2.785156 7.867187 2.785156 12.261719 0 15.660156-12.695312 28.359375-28.355468 28.359375l10.054687-64.050781 63.347656-44.6875 69.339844-5.5 41.9375 13.0625 23.074219 39.34375 6.816406 37.652343zm0 0" fill="#efefef"/></svg>